<?xml version="1.0" standalone="no"?>
<!DOCTYPE svg PUBLIC "-//W3C//DTD SVG 20010904//EN"
 "http://www.w3.org/TR/2001/REC-SVG-20010904/DTD/svg10.dtd">
<svg version="1.0" xmlns="http://www.w3.org/2000/svg"
 width="750.000000pt" height="750.000000pt" viewBox="0 0 750.000000 750.000000"
 preserveAspectRatio="xMidYMid meet">

<g transform="translate(0.000000,750.000000) scale(0.100000,-0.100000)"
fill="#000000" stroke="none">
<path d="M0 3750 l0 -3750 3750 0 3750 0 0 3750 0 3750 -3750 0 -3750 0 0
-3750z m3445 3195 c80 -6 203 -33 211 -46 8 -13 63 -10 107 5 24 9 37 10 37 3
0 -6 10 -1 23 11 15 14 42 24 78 28 29 3 57 8 60 10 3 2 14 -14 24 -36 10 -22
24 -45 31 -51 8 -6 76 -40 153 -74 186 -84 345 -170 393 -213 54 -49 113 -153
137 -242 21 -78 53 -251 96 -525 26 -162 38 -262 55 -460 5 -60 15 -166 21
-235 6 -69 15 -199 19 -290 14 -265 30 -441 45 -500 19 -73 69 -329 90 -458
l17 -104 -40 -81 c-22 -45 -46 -107 -53 -137 -6 -30 -25 -92 -41 -138 l-28
-82 20 -78 c28 -106 36 -202 20 -233 -7 -13 -33 -49 -57 -80 -56 -72 -72 -143
-48 -221 8 -28 15 -62 15 -75 0 -31 -69 -177 -112 -236 l-35 -48 -42 46 c-23
25 -43 45 -45 45 -2 0 -6 -66 -10 -147 -4 -82 -14 -218 -22 -303 -8 -85 -15
-184 -14 -220 3 -198 0 -522 -6 -569 -6 -47 -14 -62 -51 -102 -25 -26 -50 -46
-56 -43 -7 2 -13 22 -14 44 -2 55 -9 70 -33 70 -30 0 -99 -49 -106 -76 -3 -13
0 -47 7 -76 7 -29 11 -72 10 -95 -2 -30 5 -54 23 -86 29 -48 33 -84 13 -111
-12 -16 -18 -16 -102 9 -128 36 -144 44 -174 85 -20 28 -30 34 -39 26 -6 -6
-38 -31 -71 -56 -33 -25 -64 -55 -70 -67 -7 -14 -23 -24 -48 -29 -84 -16 -417
39 -568 94 -38 14 -81 25 -95 25 -26 -1 -161 -36 -178 -47 -6 -3 -13 -25 -17
-49 -12 -70 -35 -119 -90 -187 -46 -57 -85 -119 -85 -134 0 -3 7 -3 15 0 8 4
15 2 15 -4 0 -5 -17 -14 -37 -20 -26 -7 -31 -10 -15 -11 20 -1 21 -4 12 -21
-21 -39 -140 -21 -184 29 -27 29 -32 107 -12 156 28 67 62 107 184 220 64 60
111 102 105 95 -7 -8 -13 -23 -13 -35 1 -17 3 -16 16 8 8 15 13 36 10 45 -4
11 4 23 22 36 15 10 38 32 51 48 l24 30 -46 46 c-46 47 -77 104 -77 142 0 48
-64 -3 -98 -78 -25 -56 -31 -35 -20 73 21 219 27 323 27 460 1 94 7 178 16
224 13 60 14 88 5 145 -6 39 -9 112 -8 162 l3 92 46 0 c50 0 89 15 89 35 0 7
10 17 22 22 13 6 24 19 26 30 2 11 13 27 24 36 12 9 22 25 23 37 0 11 9 27 18
36 19 20 22 51 6 61 -6 5 -2 13 11 22 17 12 21 22 16 45 -4 20 -1 35 9 45 17
17 20 39 5 48 -5 3 0 15 11 26 15 15 19 28 14 50 -4 16 -2 29 3 29 6 0 13 39
16 88 3 48 6 94 7 102 2 17 -9 118 -20 191 -5 27 -6 70 -4 95 3 34 1 44 -8 38
-8 -5 -9 -3 -4 6 4 6 9 56 11 109 2 53 7 157 10 231 3 74 6 186 6 248 0 92 3
114 16 121 15 9 19 43 12 111 -2 14 7 63 19 108 25 95 18 146 -23 162 -13 4
-30 15 -39 24 -9 9 -27 17 -42 18 -16 2 -24 7 -21 15 3 7 1 13 -4 13 -6 0 -10
10 -11 23 -1 20 -2 20 -12 -5 -12 -31 -19 -33 -47 -18 -13 7 -26 7 -40 0 -11
-5 -29 -15 -40 -20 -15 -8 -24 -6 -40 10 -20 20 -20 20 0 20 11 0 20 5 20 11
0 5 4 8 9 4 13 -7 91 17 91 29 0 15 -32 46 -47 46 -16 0 -17 32 0 49 10 11 8
11 -10 2 -12 -6 -31 -11 -42 -11 -21 0 -91 37 -103 55 -4 5 -8 0 -8 -12 0 -24
-19 -33 -21 -10 0 6 -5 -1 -10 -18 -9 -30 -4 -65 9 -65 4 0 9 -12 10 -26 1
-15 10 -33 20 -40 16 -12 15 -13 -5 -14 -18 0 -23 -6 -23 -27 0 -14 7 -35 17
-45 15 -17 15 -18 -1 -18 -26 0 -30 -28 -10 -65 18 -33 12 -64 -6 -35 -7 11
-10 9 -10 -12 0 -15 4 -30 10 -33 6 -4 4 -15 -6 -30 -14 -21 -13 -26 5 -61 21
-39 29 -71 11 -44 -8 11 -10 5 -10 -25 0 -22 0 -51 0 -65 0 -14 1 -52 3 -85 2
-33 -1 -68 -7 -77 -8 -13 -7 -22 6 -34 15 -15 15 -19 2 -40 -12 -18 -13 -27
-4 -44 9 -16 9 -25 0 -35 -15 -18 -9 -61 8 -57 7 1 3 -11 -10 -28 -19 -27 -21
-34 -9 -52 9 -14 10 -23 2 -31 -14 -14 -14 -50 -1 -63 8 -8 6 -15 -5 -24 -17
-14 -21 -60 -5 -60 7 0 8 -13 4 -35 -4 -22 -2 -41 5 -49 9 -11 9 -19 -1 -35
-10 -16 -10 -25 -2 -39 9 -14 8 -23 -7 -41 -15 -18 -16 -26 -6 -41 9 -15 9
-22 -1 -32 -15 -15 -16 -50 -2 -64 8 -8 6 -15 -5 -24 -17 -14 -20 -51 -5 -66
8 -8 6 -15 -5 -24 -18 -15 -20 -41 -4 -57 8 -8 8 -17 0 -31 -16 -29 -14 -52 5
-52 14 0 14 -2 0 -22 -18 -25 -21 -64 -6 -73 6 -3 5 -15 -2 -31 -9 -20 -9 -30
1 -46 9 -15 9 -23 0 -34 -6 -8 -9 -26 -6 -41 3 -15 0 -37 -6 -51 -8 -17 -8
-28 1 -42 14 -23 5 -53 -14 -46 -8 3 -31 -6 -51 -20 l-37 -25 -24 68 c-25 73
-54 269 -45 304 7 26 -13 337 -33 519 -8 74 -19 169 -23 212 -8 71 -15 88
-110 264 -137 251 -145 300 -87 476 19 57 37 135 41 173 4 39 16 97 26 130 25
80 24 116 -6 191 -14 34 -43 131 -65 216 l-39 154 19 90 c11 49 37 141 59 204
43 125 90 367 115 600 17 164 42 244 110 349 148 231 295 350 581 471 70 30
129 61 132 69 3 9 14 40 25 69 l21 54 46 -6 c25 -3 78 -8 116 -11z m-600
-2618 c-5 -24 -1 -43 15 -70 12 -20 17 -37 12 -37 -6 0 -13 6 -15 13 -4 7 -8
3 -12 -10 -4 -13 -11 -23 -16 -23 -13 0 -20 18 -10 25 6 3 10 27 10 53 0 65 3
82 13 82 5 0 6 -15 3 -33z m29 -2 c-4 -8 -8 -15 -10 -15 -2 0 -4 7 -4 15 0 8
4 15 10 15 5 0 7 -7 4 -15z m140 -136 c-7 -12 14 -70 30 -82 7 -6 5 -7 -5 -4
-14 5 -16 -3 -14 -56 1 -34 4 -64 5 -67 1 -3 2 -8 1 -12 0 -5 4 -8 9 -8 6 0
10 -5 10 -11 0 -6 -7 -9 -15 -5 -11 4 -15 -1 -15 -19 0 -13 5 -27 11 -31 8 -4
8 -9 0 -17 -16 -16 -14 -52 4 -67 8 -7 15 -18 14 -24 0 -7 -2 -6 -6 2 -2 6 -9
10 -14 6 -12 -7 -11 -51 1 -59 7 -5 8 -11 1 -19 -13 -16 -8 -126 8 -154 7 -13
10 -26 7 -30 -3 -3 -6 0 -6 7 0 7 -5 9 -10 6 -6 -4 -8 -16 -5 -26 4 -11 1 -27
-5 -35 -8 -9 -10 -29 -6 -54 7 -43 5 -46 -22 -29 -13 8 -17 20 -14 39 2 15 -1
31 -7 34 -7 5 -6 15 5 31 11 17 13 29 6 41 -7 13 -6 24 5 40 11 17 12 27 3 43
-8 15 -7 26 2 40 9 15 9 25 0 45 -7 16 -8 28 -2 31 14 9 12 49 -2 63 -9 9 -9
12 -1 12 18 0 25 37 13 60 -9 16 -8 25 1 36 9 11 9 21 1 39 -6 14 -9 38 -6 55
4 16 2 36 -4 43 -7 8 -6 18 3 31 9 12 11 26 5 40 -4 12 -6 34 -3 48 3 14 0 35
-6 46 -6 10 -7 22 -4 26 10 9 35 -42 27 -55z m91 31 c3 -5 1 -10 -4 -10 -6 0
-11 5 -11 10 0 6 2 10 4 10 3 0 8 -4 11 -10z m-211 -59 c3 -5 -1 -12 -10 -15
-20 -8 -29 -1 -19 13 8 13 22 14 29 2z m-74 -53 c0 -36 -4 -35 -14 5 -4 16 -2
27 4 27 5 0 10 -14 10 -32z m116 -45 c-7 -7 -26 7 -26 19 0 6 6 6 15 -2 9 -7
13 -15 11 -17z m-65 8 c4 7 11 10 16 6 9 -9 -17 -28 -29 -21 -4 3 -8 11 -7 17
0 8 3 7 6 -2 4 -11 7 -11 14 0z m-56 -63 l-14 -33 -1 48 c0 43 2 47 15 34 13
-13 13 -19 0 -49z m30 -63 c10 -23 12 -41 6 -57 -5 -13 -12 -32 -16 -43 -3
-11 -8 -112 -9 -225 -2 -113 -1 -178 1 -145 4 81 12 110 24 98 6 -6 6 -19 0
-35 -5 -13 -6 -31 -1 -38 5 -7 6 -28 3 -47 -3 -19 0 -39 6 -47 10 -12 8 -19
-9 -36 -18 -18 -21 -29 -15 -65 3 -24 13 -49 20 -55 8 -7 15 -18 15 -25 0 -9
8 -11 23 -8 17 5 19 3 11 -7 -18 -18 -47 -8 -54 20 -8 31 -21 -78 -19 -163 1
-32 -1 -61 -4 -64 -12 -11 23 -33 52 -33 17 0 31 -5 31 -11 0 -5 -5 -7 -11 -3
-6 3 -15 0 -20 -7 -8 -12 -10 -12 -18 0 -14 22 -22 -4 -10 -38 8 -23 17 -31
35 -31 13 0 24 5 24 12 0 6 2 9 5 6 9 -9 -6 -38 -16 -32 -6 3 -16 0 -24 -6
-11 -9 -15 -9 -15 -1 0 6 -5 11 -11 11 -15 0 -4 -71 12 -80 6 -4 20 -5 30 -3
11 3 19 0 19 -7 0 -7 -6 -10 -14 -7 -8 3 -17 1 -20 -6 -5 -9 -7 -9 -12 1 -3 6
-10 12 -15 12 -17 0 -9 -28 16 -58 14 -17 21 -33 16 -36 -5 -4 -12 2 -15 11
-3 10 -3 5 0 -12 3 -16 5 -37 6 -45 2 -33 44 -39 79 -12 21 18 29 49 29 120 0
13 5 32 10 43 7 12 7 25 2 35 -6 10 -5 28 2 46 8 21 7 33 -1 47 -10 16 -9 22
3 32 10 8 13 21 9 36 -3 12 0 32 7 42 10 16 9 25 -1 44 -9 18 -10 30 -3 44 7
12 7 24 1 34 -5 7 -6 27 -3 42 3 15 1 33 -5 40 -5 7 -6 18 -2 25 5 9 13 5 29
-13 26 -29 28 -39 7 -31 -20 7 -20 -27 0 -44 8 -7 13 -16 10 -20 -3 -5 1 -11
7 -13 8 -3 6 -6 -4 -6 -37 -2 -13 -58 32 -74 8 -3 2 -6 -14 -6 -25 -1 -27 -4
-21 -23 3 -13 7 -37 9 -54 1 -18 7 -38 13 -46 8 -9 9 -18 1 -28 -8 -12 -8 -11
-3 5 6 19 5 19 -11 3 -14 -14 -16 -22 -6 -42 8 -18 8 -27 1 -32 -7 -4 -9 -21
-6 -40 3 -19 1 -36 -4 -39 -5 -4 -9 -24 -9 -45 0 -21 -5 -42 -11 -46 -6 -4 -8
-20 -5 -39 4 -20 2 -36 -5 -40 -6 -5 -8 -20 -5 -40 5 -24 2 -34 -9 -39 -8 -3
-15 -16 -15 -28 0 -13 -9 -31 -20 -41 -11 -9 -20 -22 -20 -29 0 -7 -12 -26
-26 -42 -32 -36 -98 -46 -129 -19 -26 23 -47 81 -33 89 6 4 8 22 5 40 -3 19
-2 34 3 34 12 0 10 143 -3 158 -8 10 -7 16 2 22 9 5 12 20 8 41 -2 19 0 42 5
52 5 11 5 24 -2 37 -8 14 -8 26 1 41 8 16 8 28 0 46 -9 19 -9 29 0 39 6 8 9
27 6 44 -4 16 -2 32 4 35 5 4 10 25 10 48 -1 78 4 112 17 126 15 16 12 45 -6
47 -6 1 -17 2 -23 3 -6 0 -8 10 -4 21 5 16 3 19 -11 13 -14 -5 -15 -3 -3 18 7
13 14 56 15 94 1 39 5 124 8 190 3 66 8 167 10 225 3 58 7 113 10 123 4 9 8
24 11 32 7 23 15 18 30 -20z m215 -79 c0 -3 -4 -8 -10 -11 -5 -3 -10 -1 -10 4
0 6 5 11 10 11 6 0 10 -2 10 -4z m-125 -46 c3 -5 2 -10 -4 -10 -5 0 -13 5 -16
10 -3 6 -2 10 4 10 5 0 13 -4 16 -10z m15 -34 c0 -3 -4 -8 -10 -11 -5 -3 -10
-1 -10 4 0 6 5 11 10 11 6 0 10 -2 10 -4z m-19 -49 c-1 -12 -15 -9 -19 4 -3 6
1 10 8 8 6 -3 11 -8 11 -12z m19 -31 c0 -3 -4 -8 -10 -11 -5 -3 -10 -1 -10 4
0 6 5 11 10 11 6 0 10 -2 10 -4z m-24 -61 c-8 -8 -17 -15 -20 -15 -3 0 -3 7 0
15 4 8 13 15 21 15 12 0 12 -2 -1 -15z m-46 -15 c0 -5 -4 -10 -10 -10 -5 0
-10 5 -10 10 0 6 5 10 10 10 6 0 10 -4 10 -10z m170 -10 c0 -5 -4 -10 -10 -10
-5 0 -10 5 -10 10 0 6 5 10 10 10 6 0 10 -4 10 -10z m-290 -40 c0 -5 -5 -10
-11 -10 -5 0 -7 5 -4 10 3 6 8 10 11 10 2 0 4 -4 4 -10z m170 -4 c0 -3 -4 -8
-10 -11 -5 -3 -10 -1 -10 4 0 6 5 11 10 11 6 0 10 -2 10 -4z m-30 -20 c0 -11
-19 -15 -25 -6 -3 5 1 10 9 10 9 0 16 -2 16 -4z m140 -86 c0 -5 -5 -10 -11
-10 -5 0 -7 5 -4 10 3 6 8 10 11 10 2 0 4 -4 4 -10z m-160 -15 c0 -8 -4 -15
-10 -15 -5 0 -10 7 -10 15 0 8 5 15 10 15 6 0 10 -7 10 -15z m25 5 c3 -5 1
-10 -4 -10 -6 0 -11 5 -11 10 0 6 2 10 4 10 3 0 8 -4 11 -10z m-155 -50 c0 -5
-4 -10 -10 -10 -5 0 -10 5 -10 10 0 6 5 10 10 10 6 0 10 -4 10 -10z m150 -40
c0 -5 -7 -10 -15 -10 -8 0 -15 5 -15 10 0 6 7 10 15 10 8 0 15 -4 15 -10z
m123 -56 c-3 -8 -9 -14 -13 -14 -11 0 -21 30 -14 41 9 15 34 -10 27 -27z m-73
17 c0 -6 -5 -13 -11 -17 -8 -4 -7 -9 2 -15 10 -6 10 -9 2 -9 -17 0 -24 15 -17
34 7 17 24 22 24 7z m-77 -30 c3 -14 1 -18 -9 -14 -8 3 -14 14 -14 25 0 23 16
16 23 -11z m187 5 c0 -2 -7 -7 -16 -10 -8 -3 -12 -2 -9 4 6 10 25 14 25 6z
m-150 -16 c0 -5 -4 -10 -10 -10 -5 0 -10 5 -10 10 0 6 5 10 10 10 6 0 10 -4
10 -10z m38 -41 c-10 -5 -18 -18 -19 -27 0 -11 -2 -12 -6 -4 -6 15 14 42 31
42 6 0 3 -5 -6 -11z m-55 -131 c-2 -4 -10 -5 -18 -1 -20 7 -20 -26 0 -54 11
-15 12 -24 4 -29 -19 -11 -29 18 -27 79 l2 58 22 -23 c12 -13 20 -26 17 -30z
m52 42 c-3 -5 -11 -10 -16 -10 -6 0 -7 5 -4 10 3 6 11 10 16 10 6 0 7 -4 4
-10z m-210 -90 c3 -5 1 -10 -4 -10 -6 0 -11 5 -11 10 0 6 2 10 4 10 3 0 8 -4
11 -10z m190 -20 c-3 -5 -12 -10 -18 -10 -7 0 -6 4 3 10 19 12 23 12 15 0z
m165 -64 c0 -3 -4 -8 -10 -11 -5 -3 -10 -1 -10 4 0 6 5 11 10 11 6 0 10 -2 10
-4z m-150 -126 c0 -5 -4 -10 -10 -10 -5 0 -10 5 -10 10 0 6 5 10 10 10 6 0 10
-4 10 -10z m-220 -50 c0 -5 -2 -10 -4 -10 -3 0 -8 5 -11 10 -3 6 -1 10 4 10 6
0 11 -4 11 -10z m-10 -340 c0 -5 -2 -10 -4 -10 -3 0 -8 5 -11 10 -3 6 -1 10 4
10 6 0 11 -4 11 -10z m1795 -1838 c-4 -4 -88 82 -112 116 -50 68 -19 48 46
-30 38 -46 68 -84 66 -86z m66 -101 c24 -55 34 -118 25 -164 -5 -27 -12 -36
-31 -40 -45 -8 -53 36 -28 156 15 71 15 79 -1 95 -9 10 -16 23 -16 28 1 16 31
-29 51 -75z m-390 -15 c21 -13 32 -14 54 -6 20 7 31 8 39 0 5 -5 17 -10 26
-10 9 0 25 -9 35 -20 10 -11 24 -20 32 -20 7 0 13 -6 13 -14 0 -17 11 -25 40
-31 19 -4 19 -2 4 20 -15 23 -15 24 5 20 14 -2 21 1 21 11 0 8 5 14 11 14 25
0 62 -151 40 -164 -6 -4 -11 0 -11 10 0 15 -4 14 -25 -6 -14 -13 -25 -32 -25
-42 0 -18 -13 -22 -60 -18 -82 7 -174 88 -214 189 -15 38 -34 75 -42 81 -8 7
-14 19 -14 28 0 13 4 12 23 -5 12 -11 34 -28 48 -37z"/>
<path d="M3705 6779 c-4 -6 -5 -12 -2 -15 2 -3 7 2 10 11 7 17 1 20 -8 4z"/>
<path d="M4261 6550 c0 -8 8 -42 19 -75 11 -33 17 -44 13 -25 -8 47 -31 119
-32 100z"/>
<path d="M4408 6260 c-11 -69 -16 -233 -8 -255 9 -25 23 167 18 245 l-3 55 -7
-45z"/>
<path d="M4706 6156 c-3 -31 -8 -82 -11 -113 -5 -53 -14 -105 -61 -370 -22
-124 -16 -129 17 -13 57 206 81 356 74 455 -3 49 -8 91 -10 93 -2 2 -6 -21 -9
-52z"/>
<path d="M4298 5949 c-5 -93 10 -220 41 -344 70 -283 72 -298 69 -620 -1 -81
16 -292 24 -300 9 -9 31 308 24 345 -22 111 -24 152 -16 248 5 56 12 107 15
111 11 19 -7 42 -28 35 -17 -5 -19 -3 -12 12 15 39 17 54 7 67 -6 6 -11 57
-11 111 -1 108 -10 146 -12 50 -1 -32 -4 -72 -8 -89 -7 -30 -7 -30 -19 15 -12
43 -29 150 -53 325 -6 44 -13 82 -15 84 -1 2 -4 -21 -6 -50z"/>
<path d="M2450 5801 c16 -31 32 -36 18 -7 -6 14 -15 26 -20 26 -5 0 -4 -9 2
-19z"/>
<path d="M2620 5498 c0 -13 14 -41 31 -63 30 -39 30 -39 23 -10 -19 78 -54
126 -54 73z"/>
<path d="M2874 5508 c-4 -6 -9 -56 -12 -111 -4 -74 -2 -98 7 -93 6 4 8 12 5
18 -4 5 -1 27 6 48 10 29 17 36 31 33 25 -7 69 5 69 18 0 6 -4 8 -9 4 -10 -6
-47 36 -56 65 -7 22 -32 33 -41 18z"/>
<path d="M4602 5500 c0 -14 2 -19 5 -12 2 6 2 18 0 25 -3 6 -5 1 -5 -13z"/>
<path d="M2977 5504 c-4 -4 -7 -14 -7 -23 0 -11 3 -12 11 -4 6 6 10 16 7 23
-2 6 -7 8 -11 4z"/>
<path d="M4591 5454 c0 -11 3 -14 6 -6 3 7 2 16 -1 19 -3 4 -6 -2 -5 -13z"/>
<path d="M2670 5370 c0 -5 -3 -9 -7 -8 -5 1 -21 -2 -37 -7 l-29 -8 46 -24 c26
-13 47 -28 47 -34 0 -6 5 -7 10 -4 9 6 7 26 -7 78 -5 18 -23 24 -23 7z"/>
<path d="M2868 5165 c-3 -83 8 -85 35 -5 8 25 18 53 22 63 6 14 2 17 -23 17
l-30 0 -4 -75z"/>
<path d="M2680 5061 c0 -10 53 -51 66 -51 10 0 -27 40 -48 51 -12 6 -18 6 -18
0z"/>
<path d="M2820 4986 c0 -1 7 -19 15 -41 8 -22 14 -57 15 -77 0 -20 5 -40 10
-43 7 -5 9 14 4 58 -4 43 -3 67 5 71 19 12 12 24 -19 28 -16 3 -30 4 -30 4z"/>
<path d="M2845 4765 c14 -13 25 -31 25 -39 0 -8 5 -18 10 -21 6 -3 10 3 10 15
0 21 -41 70 -59 70 -6 0 1 -11 14 -25z"/>
<path d="M2685 4724 c-17 -42 -20 -63 -6 -48 17 16 42 84 31 84 -5 0 -17 -16
-25 -36z"/>
<path d="M4441 4581 c-1 -64 2 -82 10 -74 15 15 15 54 1 113 -9 43 -10 42 -11
-39z"/>
<path d="M4236 3885 c-3 -9 -6 -22 -5 -28 0 -7 5 -1 10 12 5 13 8 26 5 28 -2
2 -6 -3 -10 -12z"/>
<path d="M4152 3683 c-6 -16 -13 -39 -17 -53 l-6 -25 14 25 c15 26 30 80 23
80 -2 0 -8 -12 -14 -27z"/>
<path d="M4159 3424 c15 -49 30 -84 57 -130 26 -44 27 -44 50 -29 13 8 24 11
24 5 0 -20 32 -10 53 17 l21 26 8 -29 c6 -22 4 -32 -8 -41 -13 -9 -14 -23 -8
-80 4 -37 8 -201 9 -363 2 -197 7 -321 17 -374 12 -72 13 -48 10 291 -3 203 0
390 5 414 5 24 6 64 3 88 -4 24 -5 54 -2 66 3 20 9 23 38 19 19 -2 34 -2 34 0
0 2 -18 15 -41 30 -31 21 -48 26 -70 21 -23 -5 -28 -4 -23 9 4 11 -12 23 -63
46 -37 17 -80 34 -95 37 -26 5 -27 4 -19 -23z"/>
<path d="M4265 2418 c-5 -35 -9 -78 -9 -95 -1 -18 -4 -33 -7 -33 -3 0 -6 -12
-6 -27 0 -16 -6 -53 -12 -83 -7 -30 -16 -85 -19 -122 -4 -37 -13 -73 -20 -80
-19 -19 -15 -68 6 -69 10 0 12 -3 5 -6 -8 -3 -12 -21 -12 -46 l2 -42 8 35 c6
29 7 24 7 -30 0 -36 1 -85 2 -110 l2 -45 8 35 c5 19 10 123 10 230 2 155 6
209 20 263 18 63 39 287 28 287 -3 0 -9 -28 -13 -62z"/>
<path d="M4385 2151 c-4 -7 -4 -24 0 -39 7 -26 8 -26 17 -6 12 25 -4 66 -17
45z"/>
<path d="M4404 1336 c-3 -8 -4 -23 -2 -33 3 -11 6 -6 9 15 6 34 2 42 -7 18z"/>
<path d="M4196 1069 c-15 -22 -25 -43 -23 -46 3 -2 23 1 46 7 38 10 41 13 41
45 0 50 -30 47 -64 -6z"/>
<path d="M4118 935 c-3 -14 -1 -25 3 -25 5 0 9 11 9 25 0 14 -2 25 -4 25 -2 0
-6 -11 -8 -25z"/>
<path d="M2863 755 c1 -11 -8 -30 -21 -43 -12 -12 -22 -31 -22 -41 0 -11 -29
-51 -65 -90 -36 -39 -65 -74 -65 -77 0 -14 163 142 177 170 8 17 26 46 40 64
26 34 21 41 -12 16 -18 -13 -20 -13 -27 3 -7 16 -7 16 -5 -2z"/>
<path d="M2661 384 c0 -11 3 -14 6 -6 3 7 2 16 -1 19 -3 4 -6 -2 -5 -13z"/>
<path d="M2831 3384 c0 -11 3 -14 6 -6 3 7 2 16 -1 19 -3 4 -6 -2 -5 -13z"/>
<path d="M4476 367 c3 -10 9 -15 12 -12 3 3 0 11 -7 18 -10 9 -11 8 -5 -6z"/>
</g>
</svg>
